<svg width="19" height="19" viewBox="0 0 19 19" fill="none" xmlns="http://www.w3.org/2000/svg">
<path fill-rule="evenodd" clip-rule="evenodd" d="M7.91657 1.58333C7.91671 1.41823 7.86524 1.25721 7.76934 1.12281C7.67345 0.988409 7.53793 0.887353 7.38176 0.833784C7.22559 0.780215 7.05658 0.776813 6.89838 0.824053C6.74018 0.871294 6.60071 0.966814 6.49948 1.09725L0.957815 8.22225C0.849709 8.36122 0.791016 8.53226 0.791016 8.70833C0.791016 8.8844 0.849709 9.05544 0.957815 9.19441L6.49948 16.3194C6.60071 16.4498 6.74018 16.5454 6.89838 16.5926C7.05658 16.6398 7.22559 16.6364 7.38176 16.5829C7.53793 16.5293 7.67345 16.4283 7.76934 16.2939C7.86524 16.1595 7.91671 15.9984 7.91657 15.8333V12.6746C12.1749 12.7632 14.2206 13.5715 15.2482 14.4503C16.2251 15.2855 16.404 16.268 16.5901 17.2971L16.6384 17.5623C16.6739 17.7521 16.7775 17.9223 16.9298 18.041C17.0821 18.1597 17.2725 18.2187 17.4652 18.2068C17.6579 18.195 17.8396 18.1131 17.9761 17.9766C18.1127 17.8401 18.1947 17.6584 18.2066 17.4657C18.342 15.2902 18.1386 12.1378 16.6019 9.50079C15.1104 6.94133 12.4243 4.97325 7.91657 4.76741V1.58333Z" fill="white"/>
</svg>
