<svg width="40" height="40" viewBox="0 0 40 40" fill="none" xmlns="http://www.w3.org/2000/svg">
<path d="M37.5412 17.5006C35.1206 12.1437 29.1006 7.945 30.8487 1.25L7.31437 4.19813C7.21291 4.58625 7.12887 4.97873 7.0625 5.37437L6.21375 5.44875C5.96831 6.28802 5.79929 7.14778 5.70875 8.0175L5.10687 8.07063C4.51812 10.0838 4.48625 11.935 4.80062 13.6837C3.61687 14.0356 2.43375 14.3881 1.25 14.7394C2.27812 15.3456 3.26875 15.985 4.18062 16.67C4.07491 17.6574 3.86457 18.6308 3.55312 19.5738L6.70625 18.8631C7.19832 19.7844 7.71878 20.6903 8.26687 21.5794L5.11187 23.4169C6.04937 23.7037 6.96625 24.0244 7.82562 24.3987C7.91679 25.2214 7.92119 26.0514 7.83875 26.875L10.615 25.4969C12.5581 28.9744 13.9175 32.6219 12.625 37.0444C13.5419 36.57 14.4706 36.1125 15.3987 35.6519C15.3321 36.7013 15.1496 37.7401 14.8544 38.7494C21.9625 35.0738 29.3681 31.7719 36.4756 28.0962C36.7506 27.155 36.8306 26.2081 36.7956 25.2787C37.3631 24.9769 37.9394 24.6838 38.5037 24.3781C39.1462 21.925 38.4281 19.4637 37.5412 17.5006V17.5006ZM5.92937 13.3481C5.82338 12.7114 5.77382 12.0666 5.78125 11.4213C5.87312 12.0506 6 12.6706 6.16687 13.2781L5.92937 13.3481ZM6.90437 7.90187C6.96937 9.60875 7.385 11.2044 8.02812 12.7262L7.29687 12.9437C6.86 11.3394 6.68562 9.67437 6.90437 7.90187V7.90187ZM9.28062 20.9906C8.7969 20.2046 8.33362 19.4062 7.89125 18.5962L8.39 18.4837C8.8123 19.2461 9.25073 19.9994 9.705 20.7431L9.28062 20.9906V20.9906ZM14.2412 34.9075C14.6312 31.1775 13.3475 27.9844 11.6687 24.9738L12.1287 24.7456C13.8725 27.7506 15.3087 30.845 15.4244 34.3237C15.03 34.5175 14.6344 34.7094 14.2412 34.9075ZM35.4719 27.2956C32.0769 29.0406 19.3794 35.1456 16.5006 36.595C17.2356 30.7531 14.3419 26.0519 11.5325 21.4862C10.8569 20.3881 10.1919 19.3038 9.58125 18.2156L11.0081 17.8937C14.6787 23.2119 19.2031 28.255 17.3506 35.3481C23.3481 32.0931 29.5675 29.0819 35.6269 25.8969C35.6119 26.3775 35.57 26.8481 35.4719 27.2956V27.2956ZM37.4756 23.6025C34.1575 25.3931 21.7269 31.6912 18.9106 33.1825C19.3725 27.6219 16.2856 23.2944 13.2869 19.0919C10.1769 14.7331 7.23187 10.6056 8.27375 5.25875L29.4112 2.61125C28.9681 6.88188 31.3006 10.1506 33.565 13.3244C34.6906 14.9013 35.7537 16.3913 36.4731 17.9831C37.44 20.1219 37.77 21.9662 37.4756 23.6025" fill="white"/>
<path d="M27.7168 5.33691L9.92554 8.54254C9.98804 9.00191 10.0743 9.45441 10.1855 9.89816L27.923 6.40879C27.8348 6.05552 27.7659 5.6977 27.7168 5.33691Z" fill="white"/>
<path d="M28.5576 8.25635L10.9875 12.2338C11.1719 12.6551 11.3713 13.072 11.5863 13.4826L29.0307 9.2426C28.8616 8.9194 28.7038 8.59045 28.5576 8.25635Z" fill="white"/>
<path d="M12.865 15.665C13.1213 16.0647 13.3841 16.4601 13.6531 16.8513C19.3125 15.2057 24.9721 13.5607 30.6319 11.9163C30.4194 11.6064 30.2115 11.2935 30.0081 10.9775L12.865 15.665Z" fill="white"/>
<path d="M20.0183 28.012C20.1246 28.4583 20.2071 28.9114 20.2646 29.3727L28.0639 25.5983C28.0143 25.1878 27.9404 24.7807 27.8427 24.3789L20.0183 28.012Z" fill="white"/>
</svg>
