<svg width="40" height="40" viewBox="0 0 40 40" fill="none" xmlns="http://www.w3.org/2000/svg">
<path d="M38.75 10.625C38.75 6.48313 35.3919 3.125 31.25 3.125C28.2781 3.125 25.7175 4.85813 24.5037 7.365C23.0272 7.03885 21.5196 6.87455 20.0075 6.875C18.4913 6.875 16.975 7.03937 15.4981 7.36812C14.2844 4.85937 11.7238 3.125 8.75 3.125C4.60875 3.125 1.25 6.4825 1.25 10.625C1.25 12.7413 2.13062 14.6488 3.54125 16.0125C1.69375 19.3225 1.21562 22.6975 1.27687 23.4581C1.27875 23.485 1.285 23.5169 1.28813 23.545C1.5675 26.1938 5.55562 36.875 19.85 36.875H20.0088C34.5488 36.7881 38.4975 25.995 38.7188 23.4581C38.785 22.6881 38.3281 19.3269 36.47 16.0038C37.192 15.3064 37.766 14.4707 38.1578 13.5466C38.5495 12.6224 38.7509 11.6288 38.75 10.625ZM20.0019 35.625H19.85C14.0469 35.625 9.43437 33.8181 6.14125 30.2563C5.09848 29.1254 4.22599 27.8486 3.55125 26.4663C6.8725 28.3781 12.6856 30.9363 20.0012 30.9363C27.33 30.9363 33.1481 28.3681 36.465 26.4563C34.6219 30.2219 29.96 35.5662 20.0019 35.625ZM37.4731 23.3494C37.4487 23.635 37.3256 24.0706 37.0981 24.6056C34.3137 26.405 28.1225 29.6863 20.0012 29.6863C11.8837 29.6863 5.69125 26.4088 2.90313 24.6081C2.67125 24.07 2.54625 23.6362 2.52313 23.3569C2.4825 22.805 2.90563 19.715 4.6325 16.6219L5.10125 15.7819L4.41 15.1144C3.80437 14.5343 3.32282 13.8373 2.9945 13.0656C2.66619 12.2939 2.49796 11.4636 2.5 10.625C2.5 7.17875 5.30375 4.375 8.75 4.375C11.1625 4.375 13.3175 5.73062 14.3731 7.9125L14.8038 8.80312L15.77 8.58813C17.1614 8.27958 18.5823 8.12428 20.0075 8.125C21.4338 8.125 22.8556 8.28 24.2337 8.585L25.1981 8.79938L25.6287 7.90937C26.6844 5.72937 28.8388 4.375 31.25 4.375C34.6969 4.375 37.5 7.17875 37.5 10.625C37.5022 11.4617 37.3349 12.2901 37.0082 13.0604C36.6816 13.8307 36.2023 14.5268 35.5994 15.1069L34.9094 15.7756L35.3781 16.6138C37.1106 19.7119 37.5181 22.7994 37.4731 23.3494Z" fill="white"/>
<path d="M16.4294 20C15.5356 20 13.75 22.5 13.75 22.5C13.75 22.5 15.5356 21.6663 16.4294 21.6663C17.3219 21.6663 19.1075 22.5 19.1075 22.5C19.1075 22.5 17.3206 20 16.4294 20Z" fill="white"/>
<path d="M23.5707 20C22.6782 20 20.8926 22.5 20.8926 22.5C20.8926 22.5 22.6782 21.6663 23.5707 21.6663C24.4645 21.6663 26.2501 22.5 26.2501 22.5C26.2501 22.5 24.4645 20 23.5707 20Z" fill="white"/>
<path d="M14.0125 9.1499L13.8294 8.49365L13.2819 8.89928C12.2219 9.68615 10.5275 10.1562 8.75063 10.1562C6.97375 10.1562 5.28 9.68678 4.21937 8.8999L3.6725 8.4949L3.48938 9.15053C3.3527 9.63011 3.28266 10.1262 3.28125 10.6249C3.28125 13.6405 5.73438 16.0937 8.75 16.0937C11.7656 16.0937 14.2188 13.6405 14.2188 10.6249C14.2188 10.1362 14.1494 9.6399 14.0125 9.1499ZM8.75 15.1562C6.25125 15.1562 4.21875 13.1237 4.21875 10.6249C4.21875 10.4312 4.23188 10.2355 4.25813 10.0393C4.84188 10.3674 5.52062 10.6255 6.25812 10.8043C6.27602 11.4536 6.54643 12.0703 7.01187 12.5234C7.4773 12.9764 8.10108 13.2301 8.75063 13.2305C9.40033 13.2301 10.0243 12.9764 10.4898 12.5232C10.9554 12.07 11.2259 11.4531 11.2437 10.8037C11.9806 10.6249 12.6581 10.368 13.2413 10.0393C13.2669 10.2349 13.2806 10.4305 13.2806 10.6249C13.2812 13.1237 11.2487 15.1562 8.75 15.1562Z" fill="white"/>
<path d="M36.7188 10.6243C36.7174 10.1257 36.648 9.62969 36.5125 9.1499L36.3294 8.49365L35.7819 8.89928C34.7219 9.68615 33.0275 10.1562 31.25 10.1562C29.4738 10.1562 27.7794 9.68678 26.7188 8.8999L26.1706 8.49428L25.9875 9.15115C25.8521 9.63054 25.7827 10.1261 25.7812 10.6243C25.7813 13.6399 28.235 16.093 31.25 16.093C34.2656 16.093 36.7188 13.6399 36.7188 10.6243ZM31.25 15.1555C28.7519 15.1555 26.7188 13.123 26.7188 10.6243C26.7188 10.4305 26.7319 10.2355 26.7587 10.0393C27.3425 10.3674 28.02 10.6249 28.7569 10.8037C28.7774 11.451 29.049 12.0651 29.5142 12.5157C29.9794 12.9664 30.6017 13.2185 31.2494 13.2185C31.8971 13.2185 32.5194 12.9664 32.9846 12.5157C33.4498 12.0651 33.7214 11.451 33.7419 10.8037C34.4794 10.6249 35.1581 10.368 35.7413 10.0393C35.7669 10.2349 35.7806 10.4305 35.7806 10.6243C35.7812 13.123 33.7487 15.1555 31.25 15.1555Z" fill="white"/>
</svg>
