<svg width="19" height="20" viewBox="0 0 19 20" fill="none" xmlns="http://www.w3.org/2000/svg">
<path d="M9.5 0.1875C4.25379 0.1875 0 4.44129 0 9.6875C0 14.9337 4.25379 19.1875 9.5 19.1875C14.7462 19.1875 19 14.9337 19 9.6875C19 4.44129 14.7462 0.1875 9.5 0.1875ZM10.1786 14.2679C10.1786 14.3612 10.1022 14.4375 10.0089 14.4375H8.99107C8.89777 14.4375 8.82143 14.3612 8.82143 14.2679V8.5C8.82143 8.4067 8.89777 8.33036 8.99107 8.33036H10.0089C10.1022 8.33036 10.1786 8.4067 10.1786 8.5V14.2679ZM9.5 6.97321C9.23365 6.96778 8.98003 6.85815 8.79359 6.66786C8.60714 6.47756 8.50271 6.22177 8.50271 5.95536C8.50271 5.68895 8.60714 5.43315 8.79359 5.24286C8.98003 5.05256 9.23365 4.94294 9.5 4.9375C9.76636 4.94294 10.02 5.05256 10.2064 5.24286C10.3929 5.43315 10.4973 5.68895 10.4973 5.95536C10.4973 6.22177 10.3929 6.47756 10.2064 6.66786C10.02 6.85815 9.76636 6.96778 9.5 6.97321Z" fill="white"/>
</svg>
