<svg width="128" height="128" viewBox="0 0 128 128" fill="none" xmlns="http://www.w3.org/2000/svg">
<rect width="128" height="128" fill="white"/>
<circle cx="64" cy="64" r="60" fill="#5222D0"/>
<path d="M106.188 42.9062C106.188 33.587 98.6317 26.0312 89.3125 26.0312C82.6258 26.0312 76.8644 29.9308 74.1334 35.5713C70.8113 34.8374 67.4191 34.4677 64.0169 34.4688C60.6053 34.4688 57.1938 34.8386 53.8708 35.5783C51.1398 29.9336 45.3784 26.0312 38.6875 26.0312C29.3697 26.0312 21.8125 33.5856 21.8125 42.9062C21.8125 47.6678 23.7939 51.9597 26.9678 55.0281C22.8109 62.4756 21.7352 70.0694 21.873 71.7808C21.8772 71.8413 21.8913 71.913 21.8983 71.9762C22.5269 77.9359 31.5002 101.969 63.6625 101.969H64.0197C96.7347 101.773 105.619 77.4888 106.117 71.7808C106.266 70.0483 105.238 62.4855 101.058 55.0084C102.682 53.4395 103.974 51.5591 104.855 49.4798C105.736 47.4004 106.19 45.1647 106.188 42.9062ZM64.0042 99.1562H63.6625C50.6055 99.1562 40.2273 95.0908 32.8178 87.0766C30.4716 84.5321 28.5085 81.6594 26.9903 78.5491C34.4631 82.8508 47.5427 88.6066 64.0028 88.6066C80.4925 88.6066 93.5833 82.8283 101.046 78.5266C96.8992 86.9992 86.41 99.0241 64.0042 99.1562ZM103.315 71.5361C103.26 72.1788 102.983 73.1589 102.471 74.3627C96.2059 78.4113 82.2756 85.7941 64.0028 85.7941C45.7384 85.7941 31.8053 78.4197 25.532 74.3683C25.0103 73.1575 24.7291 72.1816 24.677 71.553C24.5856 70.3112 25.5377 63.3587 29.4231 56.3992L30.4778 54.5092L28.9225 53.0073C27.5598 51.7022 26.4763 50.1339 25.7376 48.3976C24.9989 46.6613 24.6204 44.7931 24.625 42.9062C24.625 35.1522 30.9334 28.8438 38.6875 28.8438C44.1156 28.8438 48.9644 31.8939 51.3395 36.8031L52.3084 38.807L54.4825 38.3233C57.6131 37.629 60.8102 37.2796 64.0169 37.2812C67.2259 37.2812 70.4252 37.63 73.5259 38.3162L75.6958 38.7986L76.6647 36.7961C79.0398 31.8911 83.8872 28.8438 89.3125 28.8438C97.068 28.8438 103.375 35.1522 103.375 42.9062C103.38 44.7888 103.003 46.6528 102.269 48.3859C101.534 50.119 100.455 51.6853 99.0986 52.9905L97.5461 54.4952L98.6008 56.3809C102.499 63.3517 103.416 70.2986 103.315 71.5361Z" fill="white"/>
<path d="M55.9661 64C53.9552 64 49.9375 69.625 49.9375 69.625C49.9375 69.625 53.9552 67.7491 55.9661 67.7491C57.9742 67.7491 61.9919 69.625 61.9919 69.625C61.9919 69.625 57.9714 64 55.9661 64Z" fill="white"/>
<path d="M72.0339 64C70.0258 64 66.0081 69.625 66.0081 69.625C66.0081 69.625 70.0258 67.7491 72.0339 67.7491C74.0448 67.7491 78.0625 69.625 78.0625 69.625C78.0625 69.625 74.0448 64 72.0339 64Z" fill="white"/>
<path d="M50.5281 39.5876L50.1161 38.111L48.8842 39.0237C46.4992 40.7942 42.6869 41.8517 38.6889 41.8517C34.6909 41.8517 30.88 40.7956 28.4936 39.0251L27.2631 38.1139L26.8511 39.589C26.5436 40.6681 26.386 41.7843 26.3828 42.9064C26.3828 49.6915 31.9023 55.211 38.6875 55.211C45.4727 55.211 50.9922 49.6915 50.9922 42.9064C50.9922 41.8067 50.8361 40.6901 50.5281 39.5876ZM38.6875 53.1017C33.0653 53.1017 28.4922 48.5285 28.4922 42.9064C28.4922 42.4704 28.5217 42.0303 28.5808 41.5887C29.8942 42.327 31.4214 42.9078 33.0808 43.3099C33.1211 44.7709 33.7295 46.1585 34.7767 47.1779C35.8239 48.1973 37.2274 48.7681 38.6889 48.769C40.1507 48.7681 41.5546 48.1971 42.6021 47.1775C43.6496 46.1578 44.2582 44.7698 44.2984 43.3085C45.9564 42.9063 47.4808 42.3284 48.7928 41.5887C48.8505 42.0289 48.8814 42.469 48.8814 42.9064C48.8828 48.5285 44.3097 53.1017 38.6875 53.1017Z" fill="white"/>
<path d="M101.617 42.9049C101.614 41.7832 101.458 40.6671 101.153 39.5876L100.741 38.111L99.5092 39.0237C97.1242 40.7942 93.3119 41.8517 89.3125 41.8517C85.3159 41.8517 81.5036 40.7956 79.1172 39.0251L77.8839 38.1124L77.4719 39.5904C77.1672 40.669 77.0111 41.7841 77.0078 42.9049C77.0078 49.6901 82.5287 55.2096 89.3125 55.2096C96.0977 55.2096 101.617 49.6901 101.617 42.9049ZM89.3125 53.1003C83.6917 53.1003 79.1172 48.5271 79.1172 42.9049C79.1172 42.469 79.1467 42.0303 79.2072 41.5887C80.5206 42.327 82.045 42.9063 83.703 43.3085C83.7491 44.7652 84.3602 46.1467 85.4069 47.1607C86.4536 48.1748 87.8537 48.7418 89.3111 48.7418C90.7684 48.7418 92.1686 48.1748 93.2153 47.1607C94.262 46.1467 94.8731 44.7652 94.9192 43.3085C96.5786 42.9063 98.1058 42.3284 99.4178 41.5887C99.4755 42.0288 99.5064 42.469 99.5064 42.9049C99.5078 48.5271 94.9347 53.1003 89.3125 53.1003Z" fill="white"/>
</svg>
