<svg width="40" height="34" viewBox="0 0 40 34" fill="none" xmlns="http://www.w3.org/2000/svg">
<path d="M10.4789 1.26201C14.7836 1.26201 19.0803 3.96737 19.9949 7.1154C20.6696 4.11804 25.0683 1.29201 29.499 1.29201C32.9457 1.29201 36.4111 3.00136 38.1591 7.67008C42.4558 19.1495 21.4923 30.1723 19.9943 31.5363C18.4963 29.8196 -2.46594 19.3469 1.83343 7.67674C3.55345 3.00803 7.01882 1.26135 10.4789 1.26201ZM10.4789 0H10.4775C5.93481 0 2.35677 2.63803 0.662089 7.23674C-3.19662 17.7102 10.8142 26.8896 16.7956 30.8076C17.7589 31.439 18.8503 32.1543 19.0649 32.377L19.9009 33.3337L20.8316 32.4723C20.9863 32.3363 21.7016 31.8783 22.3936 31.4356C28.1297 27.7636 43.3658 18.0082 39.3278 7.2234C37.6171 2.65136 34.0344 0.0293337 29.4997 0.0293337C25.6703 0.0293337 21.8823 1.87135 19.9583 4.39871C17.9703 1.83335 14.2302 0.000666673 10.4789 0Z" fill="#764BE9"/>
</svg>
